# xmcd CD database file
#
# Track frame offsets:
#	150
#	12716
#	34209
#	49025
#	63991
#	82520
#	98388
#	113092
#	128594
#	142097
#	161301
#
# Disc length: 2391 seconds
#
# Revision: 0
# Processed by: cddbd v1.5.2PL0 Copyright (c) Steve Scherf et al.
# Submitted via: CDex 1.70beta2
#
DISCID=7f09550b
DTITLE=Kendall, Jeannie - USA - Jeannie Kendall
DYEAR=2003
DGENRE=Country
TTITLE0=That's What Your Love Does To Me
TTITLE1=Love Chooses You
TTITLE2=Timeless And True Love
TTITLE3=I Wonder Where You Are Tonight
TTITLE4=Old Friends
TTITLE5=Smokey Lonesome
TTITLE6=Jujst a Memory
TTITLE7=Train of Thought
TTITLE8=Wishing Well Blues
TTITLE9=The Colour of Her Eyes
TTITLE10=Serious Doubt ???
EXTD=YEAR: 2003
EXTT0=
EXTT1=
EXTT2=
EXTT3=
EXTT4=
EXTT5=
EXTT6=
EXTT7=
EXTT8=
EXTT9=
EXTT10=
PLAYORDER=
